<svg xmlns="http://www.w3.org/2000/svg" data-name="Layer 1" viewBox="0 0 64 64"><circle cx="35.05" cy="38.03" r="15.83" fill="#48cfb4"/><circle cx="25.17" cy="22.2" r="12.05" fill="#48cfb4"/><path fill="#35bd8b" d="M43 29.73a3.13 3.13 0 0 1-1.84 2.86 3.08 3.08 0 0 1-1.29.28 3.15 3.15 0 0 1-3.14-3.14 3.08 3.08 0 0 1 .27-1.14 3.13 3.13 0 0 1 6 1.14zm16.71-17.09v8.93H4.11v-8.93a2 2 0 0 1 2-2h51.6a2 2 0 0 1 2 2z"/><path fill="#115c54" d="M11.15 50.2H9.54a1 1 0 0 1 0-2h1.61a1 1 0 0 1 0 2zm8 0h-4.61a1 1 0 0 1 0-2h4.61a1 1 0 0 1 0 2zm12.7-.2A11.87 11.87 0 0 1 20 38.17a11.86 11.86 0 0 1 17.44-10.46 1 1 0 0 1 .45 1.29 2 2 0 0 0-.15.77 2.13 2.13 0 0 0 3 1.95 1 1 0 0 1 1.28.39 11.94 11.94 0 0 1 1.68 6.1A11.87 11.87 0 0 1 31.85 50zm0-21.72a9.86 9.86 0 0 0-6.1 17.6 9.86 9.86 0 0 0 16-7.74 9.92 9.92 0 0 0-1-4.38 4.45 4.45 0 0 1-.81.08 4.15 4.15 0 0 1-4.14-4.14 4 4 0 0 1 0-.6 9.83 9.83 0 0 0-3.95-.79z"/><path fill="#115c54" d="M31.85 41.06A4.06 4.06 0 1 1 35.91 37a4.06 4.06 0 0 1-4.06 4.06zm0-6.12A2.06 2.06 0 1 0 33.91 37a2.06 2.06 0 0 0-2.06-2.06zm0 15.06a11.72 11.72 0 0 1-7.34-2.54 1 1 0 0 1-.13-1.46 10 10 0 0 1 14.94 0 1 1 0 0 1-.13 1.45A11.72 11.72 0 0 1 31.85 50zm-5.16-3.45a9.91 9.91 0 0 0 10.32 0 8 8 0 0 0-10.32 0zm13.19-12.68a4.14 4.14 0 1 1 1.7-.37 4.09 4.09 0 0 1-1.7.37zm0-6.27a2.14 2.14 0 0 0-2.14 2.13 2.14 2.14 0 1 0 2.14-2.13zm19.83-5.03H4.11a1 1 0 0 1-1-1v-8.93a3 3 0 0 1 3-3h51.6a3 3 0 0 1 3 3v8.93a1 1 0 0 1-1 1zm-54.6-2h53.6v-7.93a1 1 0 0 0-1-1H6.11a1 1 0 0 0-1 1z"/><path fill="#115c54" d="M57.71 56H6.11a3 3 0 0 1-3-3V21.57a1 1 0 0 1 1-1h55.6a1 1 0 0 1 1 1V53a3 3 0 0 1-3 3zM5.11 22.57V53a1 1 0 0 0 1 1h51.6a1 1 0 0 0 1-1V22.57zM54.29 17h-2.41a1 1 0 1 1 0-2h2.41a1 1 0 0 1 0 2zm-6 0h-2.41a1 1 0 0 1 0-2h2.41a1 1 0 0 1 0 2zm-6 0h-2.41a1 1 0 0 1 0-2h2.41a1 1 0 0 1 0 2z"/></svg>